<svg xmlns="http://www.w3.org/2000/svg" fill="none" viewBox="0 0 141 41">
  <path fill="#272A29" d="M12.8 16.7c-1.2-.7-2.6-1-4.2-1A6.6 6.6 0 0 0 4.4 17V9H0v14.7a8 8 0 0 0 4 7c1.3.8 2.7 1.1 4.3 1.1a8.3 8.3 0 0 0 7.2-4 8.6 8.6 0 0 0 0-8.3 7.3 7.3 0 0 0-2.7-2.9Zm-1 9a3.8 3.8 0 0 1-3.5 2c-.8 0-1.4-.1-2-.5a4 4 0 0 1-1.9-3.4c0-.7.2-1.4.5-2a3.8 3.8 0 0 1 3.4-2 3.7 3.7 0 0 1 3.4 2 4.1 4.1 0 0 1 0 4Zm12-17-1.4-.3c-.5 0-1 .1-1.4.3a2.7 2.7 0 0 0-1.3 2.4c0 .5 0 1 .3 1.4l1 1c.4.2.9.3 1.4.3.5 0 1 0 1.4-.3l1-1a2.8 2.8 0 0 0-1-3.8Zm.8 7.4h-4.4v15.4h4.4V16Zm16.1.7a8.3 8.3 0 0 0-4.3-1.1c-1.5 0-3 .3-4.2 1a8.3 8.3 0 0 0-3 3 7.7 7.7 0 0 0-1 4 8 8 0 0 0 1 4.1 8.3 8.3 0 0 0 7.2 4 8.3 8.3 0 0 0 7.3-4 7.8 7.8 0 0 0 1-4c0-1.5-.3-2.9-1-4a8.3 8.3 0 0 0-3-3Zm-.8 9a3.8 3.8 0 0 1-3.4 2c-.8 0-1.5-.2-2-.6a4 4 0 0 1-2-3.4 4 4 0 0 1 2-3.4c.5-.4 1.2-.6 2-.6a3.9 3.9 0 0 1 3.4 2c.3.6.5 1.3.5 2a4 4 0 0 1-.5 2ZM89 16.7a7 7 0 0 0-4.2-1.1 7 7 0 0 0-3.3.7A5.8 5.8 0 0 0 79 19c0-.3-.2-.5-.3-.7a5.4 5.4 0 0 0-2.2-2c-1-.5-2.2-.7-3.5-.7-1.6 0-3 .3-4.1 1-1.1.8-2 1.7-2.5 3a9.1 9.1 0 0 0-.9 3.8v8H70v-7.2c0-.8 0-1.5.3-2.2.2-.6.6-1.2 1-1.6.6-.4 1.2-.6 2-.6a3 3 0 0 1 2 .6c.5.4.9 1 1.1 1.6.3.6.4 1.3.4 2.2v7.3H81V24c0-.8.1-1.5.3-2.1.3-.7.6-1.2 1.1-1.6.5-.4 1.2-.6 2-.6s1.4.2 2 .6c.5.4.8 1 1 1.6.3.7.4 1.4.4 2.2v7.3h4.4v-8a9 9 0 0 0-.8-4 7 7 0 0 0-2.5-2.8Zm11.2-8a3.2 3.2 0 0 0-2.7 0 2.7 2.7 0 0 0-1.4 2.4c0 .5.1 1 .4 1.4.2.4.5.7 1 1 .4.2.9.3 1.4.3.4 0 .9 0 1.3-.3s.8-.6 1-1a2.8 2.8 0 0 0-1-3.8Zm.8 7.4h-4.3v15.4h4.4V16Zm16.8.7a8.4 8.4 0 0 0-4.4-1.1 10 10 0 0 0-4.5 1 7 7 0 0 0-2.7 3 9.3 9.3 0 0 0-.8 4.1v7.7h4.4v-7.2c0-.8.1-1.5.3-2.1a4 4 0 0 1 1.2-1.6c.6-.4 1.2-.6 2-.6a3.3 3.3 0 0 1 3.3 2.2c.3.6.4 1.4.4 2.1v7.2h4.4v-7.7c0-1.5-.3-2.9-.9-4a7 7 0 0 0-2.7-3ZM136.6 9v8.1a6.7 6.7 0 0 0-4.2-1.4c-1.6 0-3 .3-4.2 1a7.3 7.3 0 0 0-2.8 2.9 8.6 8.6 0 0 0 0 8.3 8.3 8.3 0 0 0 7.3 4c1.5 0 3-.3 4.2-1a7.8 7.8 0 0 0 4.1-7V9h-4.4Zm-.5 16.8a3.8 3.8 0 0 1-3.4 2c-.8 0-1.5-.2-2-.6a4 4 0 0 1-2-3.4c0-.7.2-1.4.6-2a3.8 3.8 0 0 1 3.4-2 3.8 3.8 0 0 1 3.4 2 4 4 0 0 1 0 4Zm-74.4-3.9a2 2 0 0 0-1.5.3c-.3.2-.7.5-1.3.5h-.1A2.7 2.7 0 0 1 56 20c0-.6.1-1 .4-1.4a1.9 1.9 0 1 0-2.9 0c.3.4.4.8.4 1.4 0 1.5-1.1 2.6-2.6 2.7-.5 0-1-.2-1.4-.4-.4-.4-1-.5-1.5-.4-.7.2-1.3.7-1.4 1.4a1.9 1.9 0 0 0 3 1.9c.3-.3.8-.4 1.3-.4 1.5 0 2.7 1.1 2.7 2.6 0 .5-.1 1-.4 1.4a1.9 1.9 0 0 0 1.5 3 1.9 1.9 0 0 0 1.4-3c-.3-.4-.4-.9-.4-1.4 0-1.5 1.2-2.7 2.6-2.7.6 0 1 0 1.4.3a1.9 1.9 0 1 0 1.5-3.2Z"/>
</svg>
