<?xml version="1.0" encoding="utf-8"?><svg xmlns="http://www.w3.org/2000/svg"
  xmlns:xlink="http://www.w3.org/1999/xlink">
  <symbol fill="currentColor" viewBox="0 0 15 15" id="arrow-left" xmlns="http://www.w3.org/2000/svg">
    <path fill="currentColor"
      d="M8.1 1.6A1 1 0 0 0 6.8.3L.3 6.8a1 1 0 0 0 0 1.3l6.5 6.6a1 1 0 1 0 1.3-1.4l-5-4.9H14a1 1 0 1 0 0-1.9H3.2l5-5Z" />
  </symbol>
  <symbol fill="currentColor" viewBox="0 0 15 15" id="arrow-right" xmlns="http://www.w3.org/2000/svg">
    <path fill="currentColor"
      d="M6.8 1.6A1 1 0 0 1 8.1.3l6.6 6.5c.3.4.3 1 0 1.3L8 14.7a1 1 0 1 1-1.3-1.4l5-4.9H.8a1 1 0 0 1 0-1.9h10.8l-4.9-5Z" />
  </symbol>
  <symbol fill="currentColor" viewBox="0 0 24 24" id="bell" xmlns="http://www.w3.org/2000/svg">
    <path stroke="currentColor" stroke-linecap="round" stroke-linejoin="round" stroke-width="1.5"
      d="M15 19a3 3 0 1 1-6 0m4.8-12.8A2.5 2.5 0 0 0 12 2a2.5 2.5 0 0 0-1.8 4.2m7.8 5c0-1.4-.6-2.7-1.8-3.7A6.5 6.5 0 0 0 12 6c-1.6 0-3.1.5-4.2 1.5A4.9 4.9 0 0 0 6 11.2c0 2.3-.6 4-1.3 5.1l-1.2 2.2c0 .2 0 .3.2.4L6 19h12l2.2-.1.2-.4-1.2-2.2a10 10 0 0 1-1.3-5.1Z" />
  </symbol>
  <symbol fill="currentColor" viewBox="0 0 24 24" id="bookmark" xmlns="http://www.w3.org/2000/svg">
    <path stroke="currentColor" stroke-linecap="round" stroke-linejoin="round" stroke-width="2"
      d="M5 7.8c0-1.7 0-2.5.3-3.2.3-.5.8-1 1.3-1.3C7.3 3 8.1 3 9.8 3h4.4c1.7 0 2.5 0 3.2.3.5.3 1 .8 1.3 1.3.3.7.3 1.5.3 3.2V21l-7-4-7 4V7.8Z" />
  </symbol>
  <symbol fill="currentColor" viewBox="0 0 24 24" id="bookmark-fill" xmlns="http://www.w3.org/2000/svg">
    <path fill="currentColor" stroke="currentColor" stroke-linecap="round" stroke-linejoin="round" stroke-width="2"
      d="M5 7.8c0-1.7 0-2.5.3-3.2.3-.5.8-1 1.3-1.3C7.3 3 8.1 3 9.8 3h4.4c1.7 0 2.5 0 3.2.3.5.3 1 .8 1.3 1.3.3.7.3 1.5.3 3.2V21l-7-4-7 4V7.8Z" />
  </symbol>
  <symbol fill="currentColor" viewBox="0 0 16 16" id="calendar" xmlns="http://www.w3.org/2000/svg">
    <path stroke="currentColor" stroke-linecap="round" stroke-linejoin="round" stroke-width="1.3"
      d="M14 6.7H2m8.7-5.4V4M5.3 1.3V4m-.1 10.7h5.6c1.1 0 1.7 0 2.1-.3.4-.1.7-.4.9-.8.2-.5.2-1 .2-2.1V5.9c0-1.2 0-1.7-.2-2.1a2 2 0 0 0-.9-1l-2.1-.1H5.2c-1.1 0-1.7 0-2.1.2a2 2 0 0 0-.9.9c-.2.4-.2 1-.2 2v5.7c0 1 0 1.6.2 2 .2.5.5.8.9 1 .4.2 1 .2 2.1.2Z" />
  </symbol>
  <symbol fill="currentColor" viewBox="0 0 20 20" id="chat" xmlns="http://www.w3.org/2000/svg">
    <path fill="currentColor" fill-rule="evenodd"
      d="M10.3 3.1a6.6 6.6 0 0 0-6.5 6.6v6.6h6.5a6.6 6.6 0 1 0 0-13.2Zm0 14.4H3.7a1.2 1.2 0 0 1-1.2-1.2V9.7a7.8 7.8 0 1 1 7.8 7.8Z"
      clip-rule="evenodd" />
    <path fill="currentColor" fill-rule="evenodd"
      d="M7.2 8.8c0-.4.3-.7.6-.7h4.7a.6.6 0 1 1 0 1.3H7.8a.6.6 0 0 1-.6-.7Zm0 2.5c0-.4.3-.7.6-.7h4.7a.6.6 0 1 1 0 1.3H7.8a.6.6 0 0 1-.6-.7Z"
      clip-rule="evenodd" />
  </symbol>
  <symbol fill="currentColor" viewBox="0 0 16 16" id="check" xmlns="http://www.w3.org/2000/svg">
    <path stroke="currentColor" stroke-linecap="round" stroke-linejoin="round" stroke-width="2" d="m2 8 4 4 8-8" />
  </symbol>
  <symbol fill="currentColor" viewBox="0 0 16 16" id="chevron-bottom" xmlns="http://www.w3.org/2000/svg">
    <path stroke="currentColor" stroke-linecap="round" stroke-linejoin="round" stroke-width="1.3"
      d="m3 6 5 5m5-5-5 5" />
  </symbol>
  <symbol fill="currentColor" viewBox="0 0 16 16" id="chevron-left" xmlns="http://www.w3.org/2000/svg">
    <path stroke="currentColor" stroke-linecap="round" stroke-linejoin="round" stroke-width="1.3" d="M11 3 6 8l5 5" />
  </symbol>
  <symbol fill="currentColor" viewBox="0 0 16 16" id="chevron-right" xmlns="http://www.w3.org/2000/svg">
    <path stroke="currentColor" stroke-linecap="round" stroke-linejoin="round" stroke-width="1.3"
      d="m6 13 5-5M6 3l5 5" />
  </symbol>
  <symbol fill="currentColor" viewBox="0 0 16 16" id="chevron-top" xmlns="http://www.w3.org/2000/svg">
    <path stroke="currentColor" stroke-linecap="round" stroke-linejoin="round" stroke-width="1.3" d="M13 10 8 5l-5 5" />
  </symbol>
  <symbol fill="currentColor" viewBox="0 0 20 20" id="clock" xmlns="http://www.w3.org/2000/svg">
    <path fill="currentColor" fill-rule="evenodd"
      d="M10 3.125a6.875 6.875 0 1 0 0 13.75 6.875 6.875 0 0 0 0-13.75ZM1.875 10a8.125 8.125 0 1 1 16.25 0 8.125 8.125 0 0 1-16.25 0Z"
      clip-rule="evenodd" />
    <path fill="currentColor" fill-rule="evenodd"
      d="M10 5c.345 0 .625.28.625.625v3.75h3.75a.625.625 0 1 1 0 1.25H10A.625.625 0 0 1 9.375 10V5.625c0-.345.28-.625.625-.625Z"
      clip-rule="evenodd" />
  </symbol>
  <symbol fill="currentColor" viewBox="0 0 24 24" id="close" xmlns="http://www.w3.org/2000/svg">
    <path stroke="currentColor" stroke-linecap="round" stroke-linejoin="round" stroke-width="1.5"
      d="M18 6 6 18M6 6l12 12" />
  </symbol>
  <symbol fill="currentColor" viewBox="0 0 20 20" id="dislike" xmlns="http://www.w3.org/2000/svg">
    <path stroke="currentColor" stroke-linecap="round" stroke-linejoin="round" stroke-width="1.5"
      d="M14.2 1.7v9.1m4.1-2.6V4.3l-.1-1.7-.8-.8-1.7-.1h-9c-1.2 0-1.8 0-2.3.2-.4.2-.8.5-1 .9a6 6 0 0 0-.6 2.3l-.4 2.8c-.3 1.6-.4 2.4-.2 3 .3.5.6 1 1.1 1.3.6.3 1.4.3 3 .3H8c.1.2.3.3.3.5l.1.8v2.5c0 1.1 1 2 2 2 .4 0 .6-.1.7-.4l2.8-6.3.3-.5.3-.2h1.2c.9 0 1.4 0 1.7-.2l.8-.8.1-1.7Z" />
  </symbol>
  <symbol fill="currentColor" viewBox="0 0 16 16" id="edit" xmlns="http://www.w3.org/2000/svg">
    <g clip-path="url(#apa)">
      <path stroke="currentColor" stroke-linecap="round" stroke-linejoin="round" stroke-width="2"
        d="M12 6.7 9.3 4M1.7 14.3l2.2-.2.6-.1s.2 0 .3-.2l.4-.3L14 4.7A1.9 1.9 0 1 0 11.3 2l-8.8 8.8-.3.4-.2.3v.6l-.3 2.2Z" />
    </g>
    <defs>
      <clipPath id="apa">
        <path fill="currentColor" d="M0 0h16v16H0z" />
      </clipPath>
    </defs>
  </symbol>
  <symbol fill="currentColor" viewBox="0 0 16 16" id="eye" xmlns="http://www.w3.org/2000/svg">
    <path stroke="currentColor" stroke-linecap="round" stroke-linejoin="round" stroke-width="1.3"
      d="M1.6 8.5a1 1 0 0 1-.1-.4V8l.1-.4c.8-1.2 3-4.2 6.4-4.2 3.4 0 5.6 3 6.4 4.2l.1.4v0l-.1.4c-.8 1.2-3 4.2-6.4 4.2-3.4 0-5.6-3-6.4-4.2Z" />
    <path stroke="currentColor" stroke-linecap="round" stroke-linejoin="round" stroke-width="1.3"
      d="M8 10a2 2 0 1 0 0-4 2 2 0 0 0 0 4Z" />
  </symbol>
  <symbol fill="currentColor" viewBox="0 0 24 24" id="eye-off" xmlns="http://www.w3.org/2000/svg">
    <path stroke="currentColor" stroke-linecap="round" stroke-linejoin="round" stroke-width="1.5"
      d="M10.7 5H12c5.1 0 8.5 4.5 9.6 6.3l.2.5v.4c0 .2 0 .3-.2.5l-1.4 1.9M6.7 6.7a16 16 0 0 0-4.5 5v.5c0 .2 0 .3.2.5C3.5 14.5 7 19 12 19c2 0 3.8-.7 5.3-1.7M3 3l18 18M9.9 9.9A3 3 0 0 0 12 15a3 3 0 0 0 2.1-.9" />
  </symbol>
  <symbol fill="currentColor" viewBox="0 0 23 23" id="google-colored" xmlns="http://www.w3.org/2000/svg">
    <path fill="currentColor"
      d="M20.897 9.623h-.772v-.04H11.5v3.834h5.416A5.748 5.748 0 0 1 5.75 11.5a5.75 5.75 0 0 1 5.75-5.75c1.466 0 2.8.553 3.815 1.456l2.71-2.71a9.54 9.54 0 0 0-6.525-2.58c-5.292 0-9.583 4.292-9.583 9.584s4.29 9.583 9.583 9.583c5.292 0 9.583-4.29 9.583-9.583 0-.643-.066-1.27-.186-1.877Z" />
    <path fill="currentColor"
      d="M3.022 7.04 6.17 9.348A5.747 5.747 0 0 1 11.5 5.75c1.466 0 2.8.553 3.815 1.456l2.71-2.71a9.54 9.54 0 0 0-6.525-2.58A9.578 9.578 0 0 0 3.022 7.04Z" />
    <path fill="currentColor"
      d="M11.5 21.083a9.539 9.539 0 0 0 6.425-2.487l-2.966-2.51A5.706 5.706 0 0 1 11.5 17.25a5.747 5.747 0 0 1-5.406-3.807L2.968 15.85c1.586 3.104 4.807 5.233 8.532 5.233Z" />
    <path fill="currentColor"
      d="M20.897 9.623h-.772v-.04H11.5v3.834h5.416a5.769 5.769 0 0 1-1.958 2.67l.001-.002 2.966 2.51c-.21.19 3.158-2.303 3.158-7.095 0-.643-.066-1.27-.186-1.877Z" />
  </symbol>
  <symbol fill="currentColor" viewBox="0 0 24 24" id="heart" xmlns="http://www.w3.org/2000/svg">
    <path stroke="currentColor" stroke-linecap="round" stroke-linejoin="round" stroke-width="2"
      d="M16.8 2.8c-2.6 0-4.3 3-4.8 4-.5-1-2.2-4-4.8-4C4 2.8 2 5.8 2 8.3c0 2.7 1.4 4.8 3.7 7 1.8 1.6 5.1 5 6.4 5.9 1.3-1 4.6-4.3 6.4-6 2.3-2 3.7-4.2 3.7-6.9 0-2.6-2-5.5-5.3-5.5Z" />
  </symbol>
  <symbol fill="currentColor" viewBox="0 0 24 24" id="heart-fill" xmlns="http://www.w3.org/2000/svg">
    <path fill="currentColor" stroke="currentColor" stroke-linecap="round" stroke-linejoin="round" stroke-width="2"
      d="M16.8 2.8c-2.6 0-4.3 3-4.8 4-.5-1-2.2-4-4.8-4C4 2.8 2 5.8 2 8.3c0 2.7 1.4 4.8 3.7 7 1.8 1.6 5.1 5 6.4 5.9 1.3-1 4.6-4.3 6.4-6 2.3-2 3.7-4.2 3.7-6.9 0-2.6-2-5.5-5.3-5.5Z" />
  </symbol>
  <symbol fill="currentColor" viewBox="0 0 24 24" id="instagram-square" xmlns="http://www.w3.org/2000/svg">
    <path fill="currentColor"
      d="M19.349 0H4.652A4.652 4.652 0 0 0 0 4.652v14.697A4.65 4.65 0 0 0 4.652 24h14.697A4.65 4.65 0 0 0 24 19.349V4.65A4.651 4.651 0 0 0 19.349 0Z" />
    <path fill="currentColor"
      d="M12 5.754c1.96 0 2.192.008 2.966.043.715.033 1.104.153 1.362.253.343.133.587.292.845.549.256.256.415.501.549.844.1.258.22.647.252 1.363.036.774.044 1.006.044 2.966 0 1.96-.008 2.192-.044 2.966-.032.716-.152 1.104-.252 1.363a2.275 2.275 0 0 1-.55.844 2.28 2.28 0 0 1-.844.55c-.258.1-.647.22-1.362.252-.774.035-1.006.043-2.966.043-1.96 0-2.193-.008-2.967-.043-.715-.033-1.104-.153-1.362-.253a2.275 2.275 0 0 1-.844-.55 2.28 2.28 0 0 1-.55-.843c-.1-.258-.22-.647-.252-1.363-.036-.774-.043-1.006-.043-2.966 0-1.96.007-2.192.043-2.966.032-.716.152-1.105.252-1.363a2.28 2.28 0 0 1 .55-.844c.257-.257.5-.416.844-.55.258-.1.647-.22 1.362-.252.775-.035 1.007-.043 2.967-.043Zm0-1.322c-1.994 0-2.244.008-3.027.044-.78.035-1.315.16-1.781.34a3.613 3.613 0 0 0-1.3.848 3.589 3.589 0 0 0-.847 1.3c-.181.467-.306 1-.342 1.782-.035.783-.044 1.033-.044 3.027 0 1.993.009 2.243.044 3.027.036.781.16 1.314.341 1.782.188.483.44.892.847 1.3a3.61 3.61 0 0 0 1.3.847c.467.182 1.001.305 1.783.341.782.035 1.033.044 3.027.044 1.993 0 2.243-.009 3.026-.044.782-.036 1.315-.16 1.783-.34a3.593 3.593 0 0 0 1.3-.848c.408-.408.659-.817.847-1.3.181-.467.305-1 .34-1.782.036-.783.045-1.034.045-3.027 0-1.994-.009-2.243-.044-3.027-.036-.782-.16-1.314-.341-1.782a3.591 3.591 0 0 0-.847-1.3 3.604 3.604 0 0 0-1.3-.847c-.467-.182-1.001-.306-1.783-.341-.783-.036-1.033-.044-3.027-.044Z" />
    <path fill="currentColor"
      d="M12 8.003a3.769 3.769 0 1 0-.001 7.537 3.769 3.769 0 0 0 0-7.537Zm0 6.216a2.447 2.447 0 1 1 0-4.894 2.447 2.447 0 0 1 0 4.894Zm3.918-5.485a.88.88 0 1 0 0-1.76.88.88 0 0 0 0 1.76Z" />
  </symbol>
  <symbol fill="currentColor" viewBox="0 0 24 24" id="like" xmlns="http://www.w3.org/2000/svg">
    <path stroke="currentColor" stroke-linecap="round" stroke-linejoin="round" stroke-width="1.5"
      d="M7 22V11m-5 2v7c0 1.1.9 2 2 2h13.4a3 3 0 0 0 3-2.5l1-7A3 3 0 0 0 18.6 9H15a1 1 0 0 1-1-1V4.5C14 3 12.9 2 11.5 2c-.3 0-.6.2-.7.5l-3.5 8a1 1 0 0 1-1 .5H4a2 2 0 0 0-2 2Z" />
  </symbol>
  <symbol fill="currentColor" viewBox="0 0 24 24" id="log-out" xmlns="http://www.w3.org/2000/svg">
    <path stroke="currentColor" stroke-linecap="round" stroke-linejoin="round" stroke-width="1.5"
      d="m16 17 5-5m0 0-5-5m5 5H9m0-9H7.8c-1.7 0-2.5 0-3.2.3a3 3 0 0 0-1.3 1.3C3 5.3 3 6.1 3 7.8v8.4c0 1.7 0 2.5.3 3.2.3.5.8 1 1.3 1.3.7.3 1.5.3 3.2.3H9" />
  </symbol>
  <symbol fill="currentColor" viewBox="0 0 20 20" id="mail-colored" xmlns="http://www.w3.org/2000/svg">
    <path fill="currentColor"
      d="M13.008 10A3.011 3.011 0 0 1 10 13.008 3.011 3.011 0 0 1 6.992 10 3.011 3.011 0 0 1 10 6.992 3.011 3.011 0 0 1 13.008 10ZM10 0C4.486 0 0 4.486 0 10s4.486 10 10 10c2.02 0 3.968-.601 5.633-1.74l.029-.02-1.348-1.566-.022.015A7.92 7.92 0 0 1 10 17.95c-4.384 0-7.95-3.566-7.95-7.95S5.616 2.05 10 2.05s7.95 3.566 7.95 7.95a7.97 7.97 0 0 1-.188 1.709c-.25 1.032-.973 1.348-1.516 1.306-.545-.044-1.183-.433-1.188-1.384V10A5.063 5.063 0 0 0 10 4.942 5.063 5.063 0 0 0 4.942 10a5.063 5.063 0 0 0 7 4.672 5.017 5.017 0 0 0 1.642-1.107 3.25 3.25 0 0 0 2.498 1.493 3.375 3.375 0 0 0 2.299-.674c.599-.455 1.046-1.113 1.294-1.903.04-.128.112-.42.113-.422l.001-.01C19.935 11.413 20 10.78 20 10c0-5.514-4.486-10-10-10Z" />
  </symbol>
  <symbol fill="currentColor" viewBox="0 0 24 24" id="menu" xmlns="http://www.w3.org/2000/svg">
    <path fill="currentColor"
      d="M4 7c0-.6.4-1 1-1h14a1 1 0 1 1 0 2H5a1 1 0 0 1-1-1Zm0 5c0-.6.4-1 1-1h14a1 1 0 1 1 0 2H5a1 1 0 0 1-1-1Zm0 5c0-.6.4-1 1-1h14a1 1 0 1 1 0 2H5a1 1 0 0 1-1-1Z" />
  </symbol>
  <symbol fill="currentColor" viewBox="0 0 24 24" id="message" xmlns="http://www.w3.org/2000/svg">
    <path stroke="currentColor" stroke-linecap="round" stroke-linejoin="round" stroke-width="1.5"
      d="M7 8.5h5M7 12h8m-8 6v2.3l.1 1 .4.2c.2 0 .4-.2.8-.5l2.4-2 1-.7.7-.2 1.3-.1h2.5c1.7 0 2.5 0 3.2-.3a3 3 0 0 0 1.3-1.3c.3-.7.3-1.5.3-3.2V7.8c0-1.7 0-2.5-.3-3.2a3 3 0 0 0-1.3-1.3c-.7-.3-1.5-.3-3.2-.3H7.8c-1.7 0-2.5 0-3.2.3a3 3 0 0 0-1.3 1.3C3 5.3 3 6.1 3 7.8V14l.1 1.8a3 3 0 0 0 2.1 2.1L7 18Z" />
  </symbol>
  <symbol fill="currentColor" viewBox="0 0 24 24" id="notification-box" xmlns="http://www.w3.org/2000/svg">
    <path stroke="currentColor" stroke-linecap="round" stroke-linejoin="round" stroke-width="1.5"
      d="M11 4H7.8c-1.7 0-2.5 0-3.2.3a3 3 0 0 0-1.3 1.3C3 6.3 3 7.1 3 8.8v7.4c0 1.7 0 2.5.3 3.2.3.5.8 1 1.3 1.3.7.3 1.5.3 3.2.3h7.4c1.7 0 2.5 0 3.2-.3a3 3 0 0 0 1.3-1.3c.3-.7.3-1.5.3-3.2V13m.1-9.1A3 3 0 1 1 16 8a3 3 0 0 1 4-4Z" />
  </symbol>
  <symbol fill="currentColor" viewBox="0 0 24 24" id="notification-text" xmlns="http://www.w3.org/2000/svg">
    <path stroke="currentColor" stroke-linecap="round" stroke-linejoin="round" stroke-width="1.5"
      d="M11 4H7.8c-1.7 0-2.5 0-3.2.3a3 3 0 0 0-1.3 1.3C3 6.3 3 7.1 3 8.8v7.4c0 1.7 0 2.5.3 3.2.3.5.8 1 1.3 1.3.7.3 1.5.3 3.2.3h7.4c1.7 0 2.5 0 3.2-.3a3 3 0 0 0 1.3-1.3c.3-.7.3-1.5.3-3.2V13m-7 4H7m8-4H7m13.1-9.1A3 3 0 1 1 16 8a3 3 0 0 1 4-4Z" />
  </symbol>
  <symbol fill="currentColor" viewBox="0 0 15 24" id="ok-colored" xmlns="http://www.w3.org/2000/svg">
    <path fill="currentColor"
      d="M7.5 12.988c3.59 0 6.5-2.908 6.5-6.494A6.497 6.497 0 0 0 7.5 0C3.91 0 1 2.907 1 6.494a6.505 6.505 0 0 0 6.5 6.494Zm0-9.99c1.933 0 3.5 1.565 3.5 3.496A3.498 3.498 0 0 1 7.5 9.99 3.498 3.498 0 0 1 4 6.494a3.498 3.498 0 0 1 3.5-3.497Z" />
    <path fill="currentColor"
      d="M13.867 16.065A2.515 2.515 0 0 0 15 13.967a1.812 1.812 0 0 0-1.017-1.654 1.901 1.901 0 0 0-2 .188 7.615 7.615 0 0 1-8.965 0 1.911 1.911 0 0 0-2-.188A1.814 1.814 0 0 0 0 13.966a2.518 2.518 0 0 0 1.133 2.098 11.55 11.55 0 0 0 2.93 1.399c.176.054.358.105.545.152l-3.022 2.952a1.997 1.997 0 0 0-.043 2.825 2.001 2.001 0 0 0 2.877-.006l3.08-3.185 3.086 3.191a2.001 2.001 0 0 0 2.828.045 1.997 1.997 0 0 0-.004-2.874l-3.017-2.95c.187-.047.37-.098.547-.152a11.504 11.504 0 0 0 2.927-1.396Z" />
  </symbol>
  <symbol fill="currentColor" viewBox="0 0 24 28" id="play" xmlns="http://www.w3.org/2000/svg">
    <path fill="currentColor" d="M0 28V0l24 14L0 28Z" />
  </symbol>
  <symbol fill="currentColor" viewBox="0 0 24 24" id="search" xmlns="http://www.w3.org/2000/svg">
    <path fill="currentColor"
      d="M10 4a6 6 0 1 0 0 12 6 6 0 0 0 0-12Zm-8 6a8 8 0 1 1 14.3 5l5.4 5.3a1 1 0 0 1-1.4 1.4l-5.4-5.4A8 8 0 0 1 2 10Z" />
  </symbol>
  <symbol fill="currentColor" viewBox="0 0 24 24" id="settings" xmlns="http://www.w3.org/2000/svg">
    <path stroke="currentColor" stroke-linecap="round" stroke-linejoin="round" stroke-width="1.5"
      d="M3 8h12m0 0a3 3 0 1 0 6 0 3 3 0 0 0-6 0Zm-6 8h12M9 16a3 3 0 1 1-6 0 3 3 0 0 1 6 0Z" />
  </symbol>
  <symbol fill="currentColor" viewBox="0 0 32 32" id="share" xmlns="http://www.w3.org/2000/svg">
    <path stroke="currentColor" stroke-linecap="round" stroke-linejoin="round" stroke-width="2"
      d="M28 16v5.6c0 2.2 0 3.4-.4 4.2a4 4 0 0 1-1.8 1.8c-.8.4-2 .4-4.2.4H10.4c-2.2 0-3.4 0-4.2-.4a4 4 0 0 1-1.8-1.8c-.4-.8-.4-2-.4-4.2V16m17.3-6.7L16 4m0 0-5.3 5.3M16 4v16" />
  </symbol>
  <symbol fill="currentColor" viewBox="0 0 24 24" id="speedometer" xmlns="http://www.w3.org/2000/svg">
    <path stroke="currentColor" stroke-linecap="round" stroke-linejoin="round" stroke-width="1.5"
      d="M12 2v2.5M12 2A10 10 0 0 0 2 12M12 2a10 10 0 0 1 10 10m-10 7.5V22m0 0a10 10 0 0 0 10-10M12 22A10 10 0 0 1 2 12m2.5 0H2m20 0h-2.5m-.4 7-1.8-1.7M4.9 19.1l1.8-1.8M4.9 5l1.8 1.7M19 5l-5.6 5.5M14 12a2 2 0 1 1-4 0 2 2 0 0 1 4 0Z" />
  </symbol>
  <symbol fill="currentColor" viewBox="0 0 24 24" id="telegram-square" xmlns="http://www.w3.org/2000/svg">
    <path fill="currentColor"
      d="M19.3 0H4.7C2 0 0 2 0 4.7v14.6C0 22 2 24 4.7 24h14.6c2.6 0 4.7-2 4.7-4.7V4.7C24 2 22 0 19.3 0Z" />
    <path fill="currentColor"
      d="m10.5 13.9 6-5.4c.2-.2-.1-.4-.5-.1L8.7 13l-3.2-1c-.7-.2-.7-.7.2-1L18 6.2c.5-.3 1 .1.9 1l-2.2 10c-.1.7-.5.8-1.1.5l-3.2-2.4-1.6 1.5c-.2.2-.3.4-.6.4l.2-3.3Z" />
  </symbol>
  <symbol fill="currentColor" viewBox="0 0 20 20" id="trash" xmlns="http://www.w3.org/2000/svg">
    <path fill="currentColor"
      d="M5 2c0-1.1.9-2 2-2h6a2 2 0 0 1 2 2v2h4a1 1 0 1 1 0 2h-1l-1 12.1c0 1-.9 1.9-2 1.9H5c-1.1 0-2-.8-2-1.9L2 6H1a1 1 0 0 1 0-2h4V2Zm2 2h6V2H7v2ZM4 6l1 12h10l1-12H4Z"
      opacity=".5" />
  </symbol>
  <symbol fill="currentColor" viewBox="0 0 24 24" id="user" xmlns="http://www.w3.org/2000/svg">
    <path stroke="currentColor" stroke-linecap="round" stroke-width="2"
      d="M12 14a5 5 0 1 0 0-10 5 5 0 0 0 0 10Zm0 0c-4.4 0-8 2.7-8 6m8-6c4.4 0 8 2.7 8 6" />
  </symbol>
  <symbol fill="currentColor" viewBox="0 0 24 24" id="users" xmlns="http://www.w3.org/2000/svg">
    <path stroke="currentColor" stroke-linecap="round" stroke-linejoin="round" stroke-width="1.5"
      d="M22 21v-2a4 4 0 0 0-3-3.9M15.5 3.3a4 4 0 0 1 0 7.4M17 21c0-1.9 0-2.8-.3-3.5a4 4 0 0 0-2.2-2.2C13.8 15 13 15 11 15H8c-1.9 0-2.8 0-3.5.3a4 4 0 0 0-2.2 2.2C2 18.2 2 19 2 21M13.5 7a4 4 0 1 1-8 0 4 4 0 0 1 8 0Z" />
  </symbol>
  <symbol fill="currentColor" viewBox="0 0 24 14" id="vk-colored" xmlns="http://www.w3.org/2000/svg">
    <path fill="currentColor" fill-rule="evenodd"
      d="M3.526 0H.9C.15 0 0 .347 0 .73c0 .681.89 4.07 4.145 8.55C6.315 12.341 9.37 14 12.153 14c1.669 0 1.875-.368 1.875-1.003v-2.313c0-.737.158-.884.687-.884.39 0 1.057.192 2.615 1.667C19.11 13.216 19.403 14 20.405 14h2.625c.75 0 1.126-.368.91-1.095-.238-.725-1.088-1.776-2.215-3.023-.612-.71-1.53-1.475-1.809-1.858-.389-.491-.278-.71 0-1.147 0 0 3.2-4.426 3.533-5.929.167-.546 0-.948-.794-.948H20.03c-.668 0-.976.347-1.143.73 0 0-1.335 3.196-3.226 5.273-.612.6-.89.792-1.224.792-.167 0-.409-.191-.409-.738V.948c0-.656-.194-.948-.75-.948H9.152c-.417 0-.668.304-.668.593 0 .621.946.765 1.043 2.513v3.798c0 .833-.153.984-.487.984-.89 0-3.055-3.211-4.34-6.885C4.45.288 4.198 0 3.527 0Z"
      clip-rule="evenodd" />
  </symbol>
  <symbol fill="currentColor" viewBox="0 0 24 24" id="vk-square" xmlns="http://www.w3.org/2000/svg">
    <path fill="currentColor"
      d="M19.3 0H4.7C2 0 0 2 0 4.7v14.6C0 22 2 24 4.7 24h14.6c2.6 0 4.7-2 4.7-4.7V4.7C24 2 22 0 19.3 0Z" />
    <path fill="currentColor" fill-rule="evenodd"
      d="M7 7.7H5.2c-.4 0-.5.2-.5.4 0 .5.5 2.5 2.5 5.3 1.3 1.9 3.1 3 4.8 3 1 0 1.1-.3 1.1-.7v-1.4c0-.5.1-.6.4-.6.3 0 .7.2 1.6 1 1 1.1 1.2 1.6 1.8 1.6h1.6c.5 0 .7-.2.6-.7l-1.4-1.8-1-1.2c-.3-.3-.2-.4 0-.7 0 0 1.9-2.7 2-3.6.2-.4 0-.6-.4-.6h-1.6c-.4 0-.6.2-.7.4 0 0-.8 2-1.9 3.3-.4.4-.5.5-.7.5-.1 0-.3-.1-.3-.5V8.3c0-.4-.1-.6-.4-.6h-2.5c-.3 0-.4.2-.4.3 0 .4.6.5.6 1.6v2.3c0 .6 0 .7-.3.7-.5 0-1.8-2-2.6-4.3-.1-.4-.3-.6-.7-.6Z"
      clip-rule="evenodd" />
  </symbol>
  <symbol fill="currentColor" viewBox="0 0 24 24" id="youtube-square" xmlns="http://www.w3.org/2000/svg">
    <path fill="currentColor" fill-rule="evenodd"
      d="M0 4.8C0 2.1 2.1 0 4.8 0h14.4C21.9 0 24 2.1 24 4.8v14.4c0 2.7-2.1 4.8-4.8 4.8H4.8A4.8 4.8 0 0 1 0 19.2V4.8Zm4.8 3.8c0-1 .9-1.9 2-1.9h10.5c1 0 1.9.9 1.9 2v6.7c0 1-.9 1.9-2 1.9H6.8c-1 0-1.9-.9-1.9-2V8.7Zm6 5.5 3.6-2.1-3.6-2v4Z"
      clip-rule="evenodd" />
  </symbol>
  <symbol fill="currentColor" viewBox="0 0 24 24" id="zen-square" xmlns="http://www.w3.org/2000/svg">
    <path fill="currentColor"
      d="M19.35 0H4.65A4.65 4.65 0 0 0 0 4.65v14.7A4.65 4.65 0 0 0 4.65 24h14.7A4.65 4.65 0 0 0 24 19.35V4.65A4.65 4.65 0 0 0 19.35 0Z" />
    <path fill="currentColor" fill-rule="evenodd"
      d="M11.64 0c-.06 4.86-.4 7.6-2.22 9.42C7.6 11.25 4.86 11.58 0 11.64v.72c4.86.06 7.6.4 9.42 2.22 1.83 1.82 2.16 4.56 2.22 9.42h.72c.06-4.86.4-7.6 2.22-9.42 1.82-1.83 4.56-2.16 9.42-2.22v-.72c-4.86-.06-7.6-.4-9.42-2.22C12.75 7.6 12.42 4.86 12.36 0h-.72Z"
      clip-rule="evenodd" />
  </symbol>
</svg>