<svg xmlns="http://www.w3.org/2000/svg" fill="none" viewBox="0 0 89 16">
  <path fill="#092C42" fill-rule="evenodd" d="M85.3 13a3 3 0 0 1-2.7-1.5v1.4h-3.3V0h3.3v5.3a3 3 0 0 1 2.7-1.5c2 0 3.7 1.5 3.7 4.6v.1c0 3-1.7 4.5-3.7 4.5Zm.3-4.7c0-1.4-.5-2-1.5-2s-1.5.7-1.5 2v.2c0 1.3.5 2 1.5 2s1.5-.7 1.5-2v-.2Zm-10.8 3.5c-.4.6-1.2 1.2-2.6 1.2-1.6 0-3-.7-3-2.6 0-2 1.7-2.9 4.7-2.9h.8v-.1c0-.8-.1-1.3-1-1.3-.8 0-1 .5-1 1h-3.1c0-2.2 1.8-3.3 4.3-3.3s4 1 4 3.4v5.6h-3.1v-1Zm-.1-2.5H74c-1.1 0-1.5.2-1.5.8 0 .4.3.7 1 .7s1.2-.4 1.2-1v-.5ZM60.7.9h3.5v9h4.3v3h-7.7V.9ZM52 12.8v-5c0-1-.4-1.4-1.2-1.4-.8 0-1.3.5-1.3 1.5v5h-3.3V4.1h3.3v1.2a3 3 0 0 1 3-1.6c1.6 0 2.7 1 2.7 3.2v5.8H52ZM39.7 16c-3 0-4.5-1.2-4.7-3.3h3.3c.1.5.4 1 1.4 1 1.3 0 1.7-.7 1.7-1.6v-1.4a3 3 0 0 1-2.7 1.5c-2 0-3.6-1.4-3.6-4.1V8c0-2.7 1.6-4.2 3.6-4.2 1.4 0 2.2.5 2.7 1.4v-1h3.3V12c0 2.6-1.7 4-5 4Zm1.8-8c0-1-.6-1.8-1.5-1.8-1 0-1.6.7-1.6 1.8S39 9.8 40 9.8s1.5-.7 1.5-1.8Zm-9.1-4.6c-1 0-1.8-.7-1.8-1.7S31.5 0 32.5 0s1.8.7 1.8 1.7-.8 1.7-1.8 1.7ZM26.2 7c2.5.3 3.7 1 3.7 2.8 0 2.2-1.6 3-4.1 3-2.6 0-4.1-.7-4.2-2.7h3c.2.6.4.7 1.2.7.6 0 .9-.3.9-.7 0-.4-.4-.6-1.6-.7-2.3-.3-3.4-1-3.4-2.8 0-2 1.8-3 4-3s3.7.8 4 3h-3c-.1-.6-.4-.9-1-.9s-.9.3-.9.6c0 .4.4.6 1.4.7Zm-9.5 3.6c.9 0 1.2-.1 1.3-.6h3.1c-.2 2-1.8 2.9-4.6 2.9s-4.8-1.6-4.8-4.5v-.1c0-2.9 2.2-4.6 4.8-4.6 2.5 0 4.6 1.4 4.6 4.5V9h-6c0 1 .6 1.6 1.6 1.6Zm1.2-3.3c0-1-.5-1.5-1.4-1.5-.8 0-1.3.5-1.5 1.5h3ZM4.6 12.8H0V.8h4.6c4.3 0 6.5 2 6.5 5.8v.2c0 3.8-2.3 6-6.5 6Zm2.5-6c0-2.3-1.2-3-3-3h-.6v6H4c1.9 0 3-.9 3-3Zm27 6H31V4.2h3v8.6Z" clip-rule="evenodd"/>
</svg>
