<svg xmlns="http://www.w3.org/2000/svg" fill="none" viewBox="0 0 56 56">
  <path fill="url(#a)" d="m45.853 27.687-17.211 17.21-.052-.05-.017.016L22.21 38.5l-3.233-3.182c2.378 2.378 3.935 3.884 0 0-2.395-2.378-6.348-5.988 9.614 9.53l-9.614-9.53-6.587-6.244s-.085.085-3.507-5.287a10.732 10.732 0 0 1 2.48-11.308c4.192-4.192 10.984-4.192 15.176 0l2.104 2.104 2.07-2.07c4.191-4.192 10.983-4.192 15.175 0 4.157 4.191 4.157 10.983-.034 15.175Z"/>
  <g filter="url(#b)">
    <path fill="#fff" fill-opacity=".3" d="M28.44 27.023c-2.377-2.378-6.26-2.378-8.639 0l-1.18 1.18-1.198-1.197c-2.378-2.378-6.261-2.378-8.64 0-2.378 2.378-2.378 6.262 0 8.64l9.804 9.803.017-.017.034.034 9.803-9.803c2.378-2.378 2.378-6.245 0-8.64Z"/>
  </g>
  <defs>
    <linearGradient id="a" x1="28.61" x2="28.61" y1="9.334" y2="44.898" gradientUnits="userSpaceOnUse">
      <stop stop-color="#73AFF1"/>
      <stop offset="1" stop-color="#145BAA"/>
    </linearGradient>
    <filter id="b" width="26.756" height="23.776" x="5.234" y="23.457" color-interpolation-filters="sRGB" filterUnits="userSpaceOnUse">
      <feFlood flood-opacity="0" result="BackgroundImageFix"/>
      <feGaussianBlur in="BackgroundImageFix" stdDeviation=".883"/>
      <feComposite in2="SourceAlpha" operator="in" result="effect1_backgroundBlur_422_5680"/>
      <feBlend in="SourceGraphic" in2="effect1_backgroundBlur_422_5680" result="shape"/>
    </filter>
  </defs>
</svg>
