<svg xmlns="http://www.w3.org/2000/svg" fill="none" viewBox="0 0 64 64">
  <rect width="26.667" height="26.667" x="26.666" y="13.334" fill="url(#a)" rx="1.802"/>
  <g filter="url(#b)">
    <path fill="#fff" fill-opacity=".3" fill-rule="evenodd" d="M13.334 28c0-2.21 1.722-4 3.846-4h18.974c2.125 0 3.847 1.79 3.847 4v18.667c0 2.209-1.722 4-3.846 4H17.18c-2.124 0-3.846-1.791-3.846-4V28Zm4.269 8.21c0-.614.478-1.11 1.067-1.11h4.27c.588 0 1.066.496 1.066 1.11 0 .612-.477 1.11-1.067 1.11H18.67c-.59 0-1.067-.498-1.067-1.11Zm1.067 3.329c-.59 0-1.067.497-1.067 1.11 0 .613.478 1.11 1.067 1.11h12.807c.59 0 1.067-.497 1.067-1.11 0-.613-.478-1.11-1.067-1.11H18.67Z" clip-rule="evenodd"/>
  </g>
  <defs>
    <linearGradient id="a" x1="39.999" x2="39.999" y1="13.334" y2="40.001" gradientUnits="userSpaceOnUse">
      <stop stop-color="#73AFF1"/>
      <stop offset="1" stop-color="#145BAA"/>
    </linearGradient>
    <filter id="b" width="30.666" height="30.666" x="11.334" y="22" color-interpolation-filters="sRGB" filterUnits="userSpaceOnUse">
      <feFlood flood-opacity="0" result="BackgroundImageFix"/>
      <feGaussianBlur in="BackgroundImageFix" stdDeviation="1"/>
      <feComposite in2="SourceAlpha" operator="in" result="effect1_backgroundBlur_422_5676"/>
      <feBlend in="SourceGraphic" in2="effect1_backgroundBlur_422_5676" result="shape"/>
    </filter>
  </defs>
</svg>
