<svg xmlns="http://www.w3.org/2000/svg" fill="none" viewBox="0 0 1328 216">
  <g clip-path="url(#a)">
    <path fill="#B6C9DE" d="M0 0h1328v216H0z"/>
    <path fill="#EFF0E9" d="M62 200c-1-5-4-8-8-9-3 0-6 0-9 2-2 1-4 3-8 3-9 0-16-7-16-15l2-8a11 11 0 0 0-6-18 11 11 0 0 0-11 18c2 2 3 5 3 8 0 8-7 15-15 15-4 1-6 0-8-2a11 11 0 1 0 0 17c2-2 5-2 8-2 8 0 15 6 15 15 1 3 0 6-2 8a11 11 0 1 0 17 0c-2-2-2-5-2-8 0-9 6-16 15-16l8 2a11 11 0 0 0 17-10Zm27-98c8-2 15-8 17-17 1-6 0-13-4-18-3-3-6-9-6-15v-2c0-17 14-31 31-32 7 0 13 2 17 5a22 22 0 0 0 35-13 22 22 0 0 0-36-22c-4 4-9 5-16 5-17 0-31-13-32-31 0-6 2-12 5-16a22 22 0 0 0-13-35 22 22 0 0 0-22 35c4 4 5 10 5 16v1C70-20 57-6 39-6c-6 1-12-1-16-4A22 22 0 0 0-13 7 22 22 0 0 0 9 29c5 0 10-1 14-5 4-3 10-5 16-5 18 0 32 14 32 32h1c0 6-2 12-5 16a22 22 0 0 0 22 35Zm130 93c5 1 9 0 12-3l3-9 1-8 1-1c4-7 13-10 21-6l6 6a11 11 0 0 0 18 4 11 11 0 0 0-10-19c-2 1-5 0-8-2-7-4-10-13-6-21l6-6a11 11 0 0 0 4-18 11 11 0 0 0-19 10c1 2 0 5-2 8-4 7-13 10-21 6l-6-6a11 11 0 1 0-8 15c2-1 5 0 8 2 7 4 10 13 6 21l-6 6a11 11 0 0 0 0 21Zm83-148c4 1 9 0 12-4 3-2 4-6 3-9 0-3 0-6 2-9v-1c5-8 15-11 23-6 4 1 6 4 7 6a12 12 0 0 0 20 4 12 12 0 0 0-11-20c-3 0-6 0-9-2-8-5-11-15-6-23 1-4 4-6 6-7a12 12 0 1 0-16-9c0 3 0 6-2 9-5 8-15 11-23 6-4-1-6-4-7-6a12 12 0 1 0-9 16c3 0 6 0 9 2 8 5 11 15 6 24-1 3-4 5-6 6a12 12 0 0 0 1 23Z"/>
    <path stroke="#272A29" stroke-linecap="round" d="M135 133v41m20-20h-41m1040-51v41m20-20h-41m-56-102v28m14-14h-28m235-8v17m8-8h-17"/>
    <path fill="#272A29" d="M191 31a1 1 0 0 0-1 0h1Zm-1 0v38h1V31h-1Z"/>
    <path fill="#272A29" d="M209 51a1 1 0 0 0 0-1v1Zm0-1h-38v1h38v-1ZM34 91a1 1 0 0 0-1 0h1Zm-1 0v25h1V91h-1Z"/>
    <path fill="#272A29" d="M46 104a1 1 0 0 0 0-1v1Zm0-1H21v1h25v-1Zm229-39a1 1 0 0 0-1 0h1Zm-1 0v25h1V64h-1Z"/>
    <path fill="#272A29" d="M287 77a1 1 0 0 0 0-1v1Zm0-1h-25v1h25v-1Z"/>
    <path fill="#EFF0E9" d="M1270-93c0 18 7 35 20 49l3 2c10 11 24 15 34 16 14 2 27 10 34 22 11 17 11 38 0 55a50 50 0 0 1-91-22c-1-11-7-22-17-32l-1-1a72 72 0 0 0-101 1 56 56 0 0 0-18 34 50 50 0 0 1-91 22 50 50 0 0 1 36-76c11-2 23-8 33-19 14-14 20-33 20-51H988l9 1a50 50 0 0 1 29 79c-8 10-12 23-11 38 1 38 32 69 71 69h4c15 0 27-7 35-12a49 49 0 0 1 78 30 50 50 0 0 1-80 48c-8-7-20-10-34-10h-1c-40 1-71 33-71 72 0 15 4 28 11 37a50 50 0 0 1-38 81h145c1-19-6-38-21-53a56 56 0 0 0-34-18 50 50 0 1 1 55-55c1 11 8 23 18 33 29 27 73 27 100-1h1c10-10 16-22 17-34a50 50 0 0 1 92-22 50 50 0 0 1-36 76c-12 2-24 9-34 19a72 72 0 0 0-19 55h147V-93h-151Z"/>
  </g>
  <defs>
    <clipPath id="a">
      <path fill="#fff" d="M0 0h1328v216H0z"/>
    </clipPath>
  </defs>
</svg>
