<svg xmlns="http://www.w3.org/2000/svg" fill="none" viewBox="0 0 375 488">
  <g clip-path="url(#a)">
    <path fill="#B6C9DE" d="M0 0h375v488H0z"/>
    <path fill="#EFF0E9" d="M117 68c5-1 8-4 9-8 1-3 0-6-2-9-1-2-3-5-3-8v-1c0-8 7-15 16-15 3 0 6 0 8 2a11 11 0 0 0 17-6 11 11 0 0 0-17-11l-8 2h-1c-8 0-15-6-15-15 0-3 0-6 2-8a11 11 0 0 0-6-18 11 11 0 0 0-11 18l2 8c0 9-6 16-15 16l-8-2a11 11 0 0 0-18 8 11 11 0 0 0 11 11l7-2c2-2 5-3 8-3 9 0 16 7 16 16l-2 8a11 11 0 0 0 11 17h-1Zm114 8c3 1 5 0 7-2s2-4 2-6l1-5c3-5 9-6 13-4l4 4a7 7 0 0 0 11 2 7 7 0 0 0-6-11l-5-1c-5-3-6-9-4-14l4-3a7 7 0 0 0 2-12 7 7 0 0 0-11 7l-1 5c-3 4-9 6-14 3l-3-3a7 7 0 0 0-12-1 7 7 0 0 0 2 9l5 1 5 1c4 3 6 9 3 13v1l-3 3a7 7 0 0 0 0 13Z"/>
    <path stroke="#272A29" stroke-linecap="round" d="M330 29v41m20-20h-41"/>
    <path fill="#272A29" d="M45 45a1 1 0 0 0-1 0h1Zm-1 0v25h1V45h-1Z"/>
    <path fill="#272A29" d="M57 58a1 1 0 0 0 0-1v1Zm0-1H32v1h25v-1Z"/>
    <path fill="#EFF0E9" d="M375 535c-15 0-31 6-42 18l-2 2c-10 9-13 21-14 29a43 43 0 0 1-66 30 43 43 0 0 1 18-79c10-1 20-6 28-14l1-2c23-24 23-63-1-87-9-9-19-14-30-15a43 43 0 0 1-26-74l7-5c14-10 33-10 47 0 11 7 18 18 20 31 1 10 7 20 16 29 12 12 28 17 44 17V291l-1 7c-3 17-16 30-33 33-13 3-26 0-36-8-8-6-19-9-32-9-34 1-60 28-60 62v3c0 13 6 24 11 31 7 10 10 22 7 34-3 17-16 30-33 34a43 43 0 0 1-42-70c6-7 9-18 8-29v-2c-1-34-28-61-62-61-13 0-24 4-32 10a43 43 0 0 1-70-33v126c16 0 33-6 46-19 9-9 14-19 15-29a43 43 0 1 1 48 47c-10 1-20 7-29 16a62 62 0 0 0 1 87h1c8 9 19 14 29 15a43 43 0 0 1 19 80 43 43 0 0 1-66-31c-2-11-7-21-17-30a62 62 0 0 0-47-16v127h375V535Z"/>
    <path stroke="#272A29" stroke-linecap="round" d="M189 418v41m20-20h-41m-64-80v28m14-14H90m183-14v28m14-14h-28"/>
  </g>
  <defs>
    <clipPath id="a">
      <path fill="#fff" d="M0 0h375v488H0z"/>
    </clipPath>
  </defs>
</svg>
